<?xml version="1.0" encoding="UTF-8"?>
<svg xmlns="http://www.w3.org/2000/svg" width="206" height="37" viewBox="0 0 206 37" fill="none">
  <path d="M11.2018 11.6772C11.2018 11.0662 10.7266 10.6588 10.1835 10.6588H1.01835C0.475229 10.6588 0 11.134 0 11.6772C0 12.2203 0.475229 12.6955 1.01835 12.6955H10.1156C10.7266 12.7634 11.2018 12.2882 11.2018 11.6772Z" fill="#3772FF"></path>
  <path d="M11.2009 15.6824C11.2009 15.0714 10.7256 14.6641 10.1825 14.6641H2.71464C2.17152 14.6641 1.69629 15.1393 1.69629 15.6824C1.69629 16.2255 2.17152 16.7008 2.71464 16.7008H10.1146C10.7256 16.7686 11.2009 16.2934 11.2009 15.6824Z" fill="#3772FF"></path>
  <path d="M11.2018 19.6877C11.2018 19.0767 10.7266 18.6693 10.1835 18.6693H4.54862C4.0055 18.6693 3.53027 19.1445 3.53027 19.6877C3.53027 20.2308 4.0055 20.706 4.54862 20.706H10.1835C10.7266 20.7739 11.2018 20.2987 11.2018 19.6877Z" fill="#3772FF"></path>
  <path d="M18.5328 0C13.2374 0 8.34932 2.7156 5.56584 7.19633C5.36217 7.53578 5.36217 7.87523 5.56584 8.21468C5.76951 8.55413 6.10896 8.75779 6.44841 8.75779H13.9842C15.8851 8.75779 17.7181 9.3688 19.619 10.7945H16.2246C14.7989 10.7945 13.6447 11.9486 13.6447 13.3743V15.0037C13.6447 16.4294 14.7989 17.5835 16.2246 17.5835H24.2356C24.7787 18.9413 25.1181 21.0459 25.2539 22.7431H23.4888C22.742 20.8422 20.8411 19.4844 18.7365 19.4844C16.6319 19.4844 14.3915 20.7064 13.8484 22.8789H6.99153C6.65208 22.8789 6.31263 23.0826 6.10896 23.422C5.90529 23.7615 5.90529 24.1009 6.10896 24.4404C10.3181 31.433 17.6502 36.5927 17.9897 36.7963C18.1934 36.9321 18.397 37 18.6007 37C18.8044 37 19.008 36.9321 19.2117 36.7963C19.8227 36.389 33.9438 26.4771 33.9438 15.3431C33.808 6.85688 26.9512 0 18.5328 0ZM18.5328 34.6917C16.9035 33.4697 12.1512 29.7358 8.82456 24.9156H14.6631C15.2062 24.9156 15.6814 24.4404 15.6814 23.8972C15.6814 22.1321 17.4466 21.5211 18.6686 21.5211C20.0943 21.5211 21.3842 22.5395 21.6557 23.9651C21.7236 24.4404 22.1989 24.7798 22.6741 24.7798H26.2723C26.8154 24.7798 27.2906 24.3046 27.2906 23.7615C27.2906 21.5211 26.7475 18.0587 25.797 16.1578C25.5934 15.8184 25.2539 15.6147 24.9145 15.6147H16.2246C15.953 15.6147 15.6814 15.3431 15.6814 15.0716V13.4422C15.6814 13.1706 15.953 12.8991 16.2246 12.8991H22.4025C22.8099 12.8991 23.2172 12.6275 23.353 12.2881C23.4888 11.8807 23.4209 11.4734 23.0814 11.2018C20.9769 9.16514 18.0576 6.85688 13.9842 6.85688H8.41721C10.9291 3.86973 14.5952 2.17248 18.5328 2.17248C25.8649 2.17248 31.7713 8.14679 31.7713 15.411C31.7713 24.1688 21.1805 32.7229 18.5328 34.6917Z" fill="#3772FF"></path>
  <path d="M18.4658 22.7433C17.5832 22.7433 16.9043 23.4222 16.9043 24.3048C16.9043 25.1874 17.5832 25.8663 18.4658 25.8663C19.3483 25.8663 20.0272 25.1874 20.0272 24.3048C20.0272 23.4222 19.3483 22.7433 18.4658 22.7433Z" fill="#3772FF"></path>
  <path d="M53.0898 12.56C52.4787 12.56 52.0035 12.7637 51.6641 13.171C51.3246 13.5783 51.1209 14.1215 51.1209 14.9361V19.6884C51.1209 21.5894 50.9852 22.7435 50.7815 23.2866C50.5099 23.8976 50.1026 24.4407 49.4916 24.8481C48.8806 25.2554 48.2696 25.4591 47.6586 25.4591C46.9797 25.4591 46.4365 25.2554 46.0292 24.916C45.6219 24.5765 45.3503 24.1013 45.2145 23.4903C45.0787 22.8793 45.0109 22.1325 45.0109 21.182V14.9361C45.0109 14.1894 44.8072 13.5783 44.4677 13.171C44.1283 12.7637 43.6531 12.56 43.042 12.56C42.431 12.56 42.0237 12.7637 41.6164 13.171C41.2769 13.5783 41.0732 14.1215 41.0732 14.9361V22.6756C41.0732 24.2371 41.3448 25.3912 41.82 26.2738C42.2274 26.9527 42.8384 27.4958 43.5852 27.9031C44.332 28.3105 45.1466 28.5141 46.0971 28.5141C46.9118 28.5141 47.5907 28.4462 48.2017 28.2426C48.8127 28.0389 49.3558 27.7673 49.8989 27.36C50.442 26.9527 50.9173 26.4774 51.3925 25.8664V26.3417C51.3925 27.0205 51.5962 27.5637 51.9356 27.971C52.2751 28.3783 52.7503 28.582 53.2255 28.582C53.7008 28.582 54.176 28.3783 54.5154 28.0389C54.8549 27.6994 54.9907 27.0884 54.9907 26.3417V15.004C54.9907 14.1894 54.787 13.6462 54.4476 13.2389C54.1081 12.6958 53.7008 12.56 53.0898 12.56Z" fill="#3772FF"></path>
  <path d="M71.7598 24.6436L67.7543 18.3298L69.8589 16.4289C70.9451 15.4784 71.4204 14.7317 71.4204 14.1206C71.4204 13.6454 71.2846 13.2381 70.9452 12.9665C70.6057 12.6271 70.1984 12.4913 69.7231 12.4913C69.3158 12.4913 68.9763 12.6271 68.7048 12.8307C68.4332 13.0344 68.0259 13.4418 67.4828 13.9849L63.0699 18.6014V9.16468C63.0699 8.35 62.8662 7.739 62.5268 7.33166C62.1873 6.92432 61.7121 6.72064 61.1011 6.72064C60.4901 6.72064 60.0149 6.92431 59.6754 7.39954C59.336 7.87477 59.2002 8.48579 59.2002 9.36835V26.0014C59.2002 26.8161 59.4039 27.3592 59.7433 27.7665C60.0828 28.1739 60.558 28.3775 61.169 28.3775C61.7121 28.3775 62.1195 28.1739 62.5268 27.7665C62.9341 27.3592 63.1378 26.8161 63.1378 26.0014V22.8784L65.2424 20.9096L68.7048 26.5445C69.1121 27.2234 69.5195 27.6986 69.7231 27.9702C69.9947 28.2417 70.3341 28.3775 70.8094 28.3775C71.3525 28.3775 71.8277 28.1739 72.1672 27.8344C72.5066 27.495 72.6424 27.0197 72.6424 26.3408C72.6424 26.1372 72.5745 25.8656 72.4387 25.6619C72.3029 25.4583 72.0993 25.1188 71.7598 24.6436Z" fill="#3772FF"></path>
  <path d="M85.2024 13.171C84.4556 12.7637 83.6409 12.56 82.8262 12.56C82.0115 12.56 81.3326 12.7637 80.8574 13.171C80.3822 13.5783 79.907 14.1894 79.4317 15.004C79.4317 14.1894 79.2281 13.5783 78.9565 13.171C78.6849 12.7637 78.2097 12.56 77.5308 12.56C76.2409 12.56 75.6299 13.4426 75.6299 15.2077V26.0701C75.6299 26.8848 75.8336 27.4279 76.173 27.8352C76.5125 28.2426 76.9877 28.4462 77.5308 28.4462C78.0739 28.4462 78.5492 28.2426 78.9565 27.8352C79.2959 27.4279 79.4996 26.8169 79.4996 26.0701V22.7435C79.4996 21.5894 79.5675 20.571 79.6354 19.7563C79.7033 18.9417 79.8391 18.2628 80.0427 17.6517C80.2464 17.0407 80.518 16.6334 80.8574 16.2939C81.1969 16.0224 81.6721 15.8187 82.2831 15.8187C82.6904 15.8187 83.1657 15.8866 83.7088 16.0903C84.2519 16.2939 84.5914 16.3618 84.7271 16.3618C85.1345 16.3618 85.4739 16.226 85.8134 15.8866C86.1528 15.5471 86.2886 15.2077 86.2886 14.7325C86.3565 14.1215 86.017 13.5783 85.2024 13.171Z" fill="#3772FF"></path>
  <path d="M101.02 20.9783C101.563 20.7067 101.835 20.0279 101.835 19.0774C101.835 17.9912 101.563 16.9728 101.02 15.9545C100.477 14.9361 99.6622 14.1214 98.576 13.4425C97.4897 12.8315 96.1998 12.4921 94.6384 12.4921C93.4842 12.4921 92.398 12.6957 91.4475 13.0352C90.4971 13.4425 89.6824 13.9857 89.0035 14.6646C88.3246 15.3435 87.8494 16.226 87.5099 17.1765C87.1705 18.1948 86.9668 19.2132 86.9668 20.3673C86.9668 22.8113 87.6457 24.7801 89.0714 26.2058C90.4292 27.6315 92.398 28.3783 94.9099 28.3783C95.9962 28.3783 96.9466 28.2425 97.8292 27.971C98.7118 27.6994 99.3907 27.2921 99.9338 26.8847C100.477 26.4774 100.884 26.0022 101.156 25.5269C101.427 25.0517 101.563 24.6444 101.563 24.3049C101.563 23.8976 101.427 23.626 101.224 23.3545C100.952 23.1508 100.681 23.015 100.273 23.015C99.9338 23.015 99.5943 23.0829 99.3907 23.2866C98.9154 23.7618 98.5081 24.1012 98.2365 24.3728C97.965 24.6444 97.6255 24.9159 97.2182 25.1196C96.8787 25.3233 96.4714 25.5269 96.0641 25.6627C95.6567 25.7985 95.2494 25.7985 94.7741 25.7985C94.0952 25.7985 93.4163 25.5948 92.8732 25.2554C92.3301 24.9159 91.8549 24.3728 91.5154 23.6939C91.176 23.015 90.9723 22.2682 90.9723 21.3178H98.576C99.7301 21.3856 100.477 21.2499 101.02 20.9783ZM91.0402 19.2132C91.176 17.9233 91.5833 16.9049 92.1943 16.226C92.8053 15.5471 93.62 15.2077 94.5705 15.2077C95.5888 15.2077 96.4035 15.5471 97.0145 16.226C97.6255 16.9049 97.965 17.8554 98.1007 19.2132H91.0402Z" fill="#3772FF"></path>
  <path d="M115.754 12.56C115.21 12.56 114.871 12.6957 114.599 13.0352C114.328 13.3746 114.056 13.8499 113.785 14.5967L110.39 23.8297L107.199 14.9361C106.928 14.0535 106.656 13.4425 106.385 13.0352C106.113 12.6957 105.706 12.4921 105.027 12.4921C104.687 12.4921 104.416 12.56 104.076 12.7636C103.805 12.8994 103.533 13.171 103.398 13.3746C103.262 13.6462 103.126 13.9178 103.126 14.1893C103.126 14.393 103.126 14.5967 103.194 14.8003C103.262 15.0719 103.33 15.2756 103.398 15.4792C103.465 15.6829 103.601 15.9545 103.669 16.1581L107.403 25.3233C107.742 26.2058 108.014 26.8168 108.218 27.0884C108.421 27.36 108.625 27.6315 108.965 27.9031C109.304 28.1746 109.711 28.3104 110.254 28.3104C110.662 28.3104 111.069 28.2425 111.341 28.0389C111.612 27.9031 111.884 27.6315 112.087 27.36C112.291 27.0884 112.495 26.749 112.631 26.3416C112.766 25.9343 112.902 25.5948 113.038 25.3233L116.772 16.0223C116.908 15.7508 116.976 15.5471 117.043 15.3435C117.111 15.1398 117.179 14.9361 117.247 14.7324C117.315 14.5288 117.315 14.3251 117.315 14.1214C117.315 13.7141 117.111 13.3068 116.772 12.9673C116.636 12.6957 116.229 12.56 115.754 12.56Z" fill="#3772FF"></path>
  <path d="M129.874 13.171C129.127 12.7637 128.313 12.56 127.498 12.56C126.683 12.56 126.005 12.7637 125.529 13.171C125.054 13.5783 124.579 14.1894 124.104 15.004C124.104 14.1894 123.9 13.5783 123.628 13.171C123.357 12.7637 122.882 12.56 122.203 12.56C120.913 12.56 120.302 13.4426 120.302 15.2077V26.0701C120.302 26.8848 120.505 27.4279 120.845 27.8352C121.184 28.2426 121.66 28.4462 122.203 28.4462C122.746 28.4462 123.221 28.2426 123.628 27.8352C123.968 27.4279 124.171 26.8169 124.171 26.0701V22.7435C124.171 21.5894 124.239 20.571 124.307 19.7563C124.375 18.9417 124.511 18.2628 124.715 17.6517C124.918 17.0407 125.19 16.6334 125.529 16.2939C125.869 16.0224 126.344 15.8187 126.955 15.8187C127.362 15.8187 127.838 15.8866 128.381 16.0903C128.924 16.2939 129.263 16.3618 129.399 16.3618C129.806 16.3618 130.146 16.226 130.485 15.8866C130.825 15.5471 130.96 15.2077 130.96 14.7325C131.028 14.1215 130.621 13.5783 129.874 13.171Z" fill="#3772FF"></path>
  <path d="M144.537 14.7325C143.859 14.0536 143.044 13.5105 142.093 13.1031C141.143 12.6958 140.057 12.56 138.903 12.56C137.748 12.56 136.662 12.7637 135.712 13.1031C134.761 13.4426 133.947 13.9857 133.268 14.7325C132.589 15.4793 132.046 16.2939 131.706 17.2444C131.367 18.1949 131.163 19.2811 131.163 20.5031C131.163 21.6572 131.367 22.7435 131.706 23.6939C132.046 24.6444 132.589 25.527 133.268 26.2059C133.947 26.8848 134.761 27.4279 135.712 27.8352C136.662 28.2426 137.748 28.3783 138.903 28.3783C140.125 28.3783 141.143 28.1747 142.093 27.8352C143.044 27.4279 143.859 26.8848 144.537 26.2059C145.216 25.527 145.759 24.6444 146.099 23.6939C146.438 22.7435 146.642 21.6572 146.642 20.5031C146.642 19.349 146.438 18.2628 146.099 17.3123C145.759 16.3618 145.216 15.4114 144.537 14.7325ZM141.686 24.1692C141.007 25.0517 140.057 25.527 138.835 25.527C138.02 25.527 137.341 25.3233 136.798 24.916C136.255 24.5086 135.78 23.8976 135.44 23.1508C135.101 22.404 134.965 21.5215 134.965 20.5031C134.965 19.4848 135.101 18.6022 135.44 17.7875C135.78 17.0407 136.187 16.4297 136.798 16.0224C137.409 15.615 138.02 15.4114 138.835 15.4114C139.989 15.4114 140.939 15.8866 141.686 16.7692C142.365 17.6517 142.704 18.8738 142.704 20.5031C142.704 22.0646 142.365 23.2866 141.686 24.1692Z" fill="#3772FF"></path>
  <path d="M162.597 24.6436L158.591 18.3298L160.696 16.4289C161.782 15.4784 162.257 14.7317 162.257 14.1206C162.257 13.6454 162.122 13.2381 161.782 12.9665C161.443 12.6271 161.035 12.4913 160.56 12.4913C160.153 12.4913 159.813 12.6271 159.542 12.8307C159.27 13.0344 158.863 13.4418 158.32 13.9849L153.907 18.6014V9.16468C153.907 8.35 153.703 7.739 153.364 7.33166C153.024 6.92432 152.549 6.72064 151.938 6.72064C151.327 6.72064 150.852 6.92431 150.512 7.39954C150.173 7.87477 150.037 8.48579 150.037 9.36835V26.0014C150.037 26.8161 150.241 27.3592 150.58 27.7665C150.92 28.1739 151.395 28.3775 152.006 28.3775C152.549 28.3775 152.956 28.1739 153.364 27.7665C153.771 27.3592 153.975 26.8161 153.975 26.0014V22.8784L156.079 20.9096L159.542 26.5445C159.949 27.2234 160.356 27.6986 160.56 27.9702C160.764 28.2417 161.171 28.3775 161.646 28.3775C162.189 28.3775 162.665 28.1739 163.004 27.8344C163.344 27.495 163.479 27.0197 163.479 26.3408C163.479 26.1372 163.411 25.8656 163.276 25.6619C163.072 25.4583 162.868 25.1188 162.597 24.6436Z" fill="#3772FF"></path>
  <path d="M177.871 14.7325C177.192 14.0536 176.378 13.5105 175.427 13.1031C174.477 12.6958 173.391 12.56 172.237 12.56C171.082 12.56 169.996 12.7637 169.046 13.1031C168.095 13.4426 167.281 13.9857 166.602 14.7325C165.923 15.4793 165.38 16.2939 165.04 17.2444C164.701 18.1949 164.497 19.2811 164.497 20.5031C164.497 21.6572 164.701 22.7435 165.04 23.6939C165.38 24.6444 165.923 25.527 166.602 26.2059C167.281 26.8848 168.095 27.4279 169.046 27.8352C169.996 28.2426 171.082 28.3783 172.237 28.3783C173.459 28.3783 174.477 28.1747 175.427 27.8352C176.378 27.4279 177.192 26.8848 177.871 26.2059C178.55 25.527 179.093 24.6444 179.433 23.6939C179.772 22.7435 179.976 21.6572 179.976 20.5031C179.976 19.349 179.772 18.2628 179.433 17.3123C179.093 16.3618 178.55 15.4114 177.871 14.7325ZM175.02 24.1692C174.341 25.0517 173.391 25.527 172.169 25.527C171.354 25.527 170.675 25.3233 170.132 24.916C169.589 24.5086 169.114 23.8976 168.774 23.1508C168.435 22.404 168.299 21.5215 168.299 20.5031C168.299 19.4848 168.435 18.6022 168.774 17.7875C169.114 17.0407 169.521 16.4297 170.132 16.0224C170.743 15.615 171.354 15.4114 172.169 15.4114C173.323 15.4114 174.273 15.8866 175.02 16.7692C175.699 17.6517 176.038 18.8738 176.038 20.5031C176.106 22.0646 175.699 23.2866 175.02 24.1692Z" fill="#3772FF"></path>
  <path d="M204.689 15.004C204.281 14.1893 203.738 13.6462 202.991 13.171C202.245 12.7636 201.294 12.56 200.208 12.56C199.325 12.56 198.443 12.7636 197.696 13.171C196.949 13.5783 196.27 14.1214 195.591 14.9361C195.116 14.1214 194.573 13.5783 193.826 13.171C193.147 12.7636 192.265 12.56 191.314 12.56C190.364 12.56 189.481 12.7636 188.735 13.1031C187.988 13.5104 187.241 14.0535 186.562 14.8682V14.5288C186.562 13.9178 186.358 13.3746 186.019 13.0352C185.679 12.6957 185.204 12.4921 184.661 12.4921C184.118 12.4921 183.643 12.6957 183.303 13.0352C182.964 13.4425 182.828 13.9856 182.828 14.7324V25.8664C182.828 26.6811 183.032 27.2921 183.371 27.6994C183.711 28.1067 184.254 28.3104 184.797 28.3104C185.408 28.3104 185.883 28.1067 186.223 27.6994C186.562 27.2921 186.766 26.6811 186.766 25.8664V20.571C186.766 18.9416 186.969 17.6517 187.377 16.7691C187.784 15.8866 188.599 15.4792 189.889 15.4792C190.5 15.4792 190.975 15.6829 191.314 16.0223C191.586 16.3618 191.79 16.837 191.857 17.3801C191.925 17.9233 191.925 18.6701 191.925 19.6884V25.9343C191.925 26.7489 192.129 27.36 192.468 27.7673C192.808 28.1746 193.283 28.3783 193.894 28.3783C194.505 28.3783 194.98 28.1746 195.388 27.7673C195.727 27.36 195.931 26.7489 195.931 25.9343V20.7746C195.931 19.0774 196.067 17.9233 196.338 17.3123C196.61 16.7691 196.949 16.3618 197.424 16.0902C197.9 15.8187 198.375 15.615 198.918 15.615C199.529 15.615 200.004 15.8187 200.344 16.1581C200.683 16.4976 200.819 16.9049 200.955 17.448C201.023 17.9233 201.091 18.6022 201.091 19.4847V26.07C201.091 26.8847 201.294 27.4957 201.634 27.9031C201.973 28.3104 202.516 28.5141 203.059 28.5141C203.67 28.5141 204.146 28.3104 204.553 27.9031C204.892 27.4957 205.096 26.8847 205.096 26.07V18.4664C205.164 16.7691 205.028 15.6829 204.689 15.004Z" fill="#3772FF"></path>
</svg>
